<svg width="28" height="19" viewBox="0 0 28 19" fill="none" xmlns="http://www.w3.org/2000/svg">
<path d="M27.7378 15.3571C27.7378 17.0848 26.3413 18.4285 24.6558 18.4285H9.87195C9.05333 18.4285 8.28279 18.1406 7.70499 17.5647L0.433457 10.3181C0.144451 10.0301 0 9.64619 0 9.21432C0 8.83037 0.144451 8.44642 0.433457 8.1585L7.70499 0.911859C8.28279 0.335931 9.05333 0 9.87195 0H24.6558C26.3413 0 27.7378 1.39175 27.7378 3.07151V15.3571ZM13.0503 6.95873L15.3136 9.21432L13.0503 11.4699C12.5687 11.9498 12.5687 12.6697 13.0503 13.1015C13.4836 13.5814 14.206 13.5814 14.6394 13.1015L16.9509 10.846L19.2142 13.1015C19.6476 13.5814 20.3699 13.5814 20.8033 13.1015C21.2849 12.6697 21.2849 11.9498 20.8033 11.4699L18.54 9.21432L20.8033 6.95873C21.2849 6.52676 21.2849 5.80698 20.8033 5.32699C20.3699 4.89512 19.6476 4.89512 19.2142 5.32699L16.9509 7.6306L14.6394 5.32699C14.206 4.89512 13.4836 4.89512 13.0503 5.32699C12.5687 5.80698 12.5687 6.52676 13.0503 6.95873Z" fill="#121212"/>
</svg>
