<svg width="18" height="17" viewBox="0 0 18 17" fill="none" xmlns="http://www.w3.org/2000/svg">
<path d="M1.2 1.21429H10.8V7.16429H12V1.21429C12 0.892237 11.8736 0.583379 11.6485 0.355656C11.4235 0.127933 11.1183 0 10.8 0H1.2C0.88174 0 0.576515 0.127933 0.351472 0.355656C0.126428 0.583379 0 0.892237 0 1.21429V15.7857C0 16.1078 0.126428 16.4166 0.351472 16.6443C0.576515 16.8721 0.88174 17 1.2 17H10.8C11.1183 17 11.4235 16.8721 11.6485 16.6443C11.8736 16.4166 12 16.1078 12 15.7857H1.2V1.21429Z" fill="#CB0000"/>
<path d="M14.382 7.15794C14.2635 7.05033 14.1111 6.9941 13.9552 7.00049C13.7992 7.00687 13.6513 7.0754 13.541 7.19238C13.4307 7.30935 13.366 7.46616 13.36 7.63146C13.354 7.79677 13.407 7.95839 13.5085 8.08404L15.6025 10.2581H6.61951C6.45521 10.2581 6.29763 10.3273 6.18145 10.4505C6.06527 10.5737 6 10.7407 6 10.9149C6 11.0891 6.06527 11.2562 6.18145 11.3794C6.29763 11.5025 6.45521 11.5717 6.61951 11.5717H15.6025L13.5085 13.8443C13.4437 13.9032 13.391 13.9756 13.3538 14.0571C13.3166 14.1386 13.2957 14.2274 13.2924 14.3178C13.2891 14.4083 13.3035 14.4985 13.3347 14.5828C13.3658 14.6671 13.413 14.7436 13.4734 14.8076C13.5338 14.8716 13.606 14.9217 13.6855 14.9547C13.765 14.9878 13.8501 15.003 13.9354 14.9995C14.0207 14.996 14.1044 14.9739 14.1813 14.9344C14.2582 14.895 14.3265 14.8392 14.382 14.7704L18 10.9609L14.382 7.15794Z" fill="#CB0000"/>
</svg>
