<svg width="30" height="20" viewBox="0 0 30 20" fill="none" xmlns="http://www.w3.org/2000/svg">
<path d="M16.7279 2C16.7279 0.895431 15.8325 4.82823e-08 14.7279 0C13.6233 -4.82823e-08 12.7279 0.89543 12.7279 2L14.7279 2L16.7279 2ZM13.3137 19.4142C14.0947 20.1953 15.3611 20.1953 16.1421 19.4142L28.87 6.68629C29.6511 5.90524 29.6511 4.63891 28.87 3.85786C28.089 3.07682 26.8227 3.07682 26.0416 3.85786L14.7279 15.1716L3.4142 3.85786C2.63315 3.07682 1.36682 3.07682 0.58577 3.85786C-0.195279 4.63891 -0.195279 5.90524 0.585769 6.68629L13.3137 19.4142ZM14.7279 2L12.7279 2L12.7279 18L14.7279 18L16.7279 18L16.7279 2L14.7279 2Z" fill="#121212"/>
</svg>
