<svg width="30" height="20" viewBox="0 0 30 20" fill="none" xmlns="http://www.w3.org/2000/svg">
<path d="M12.7279 18C12.7279 19.1046 13.6233 20 14.7279 20C15.8325 20 16.7279 19.1046 16.7279 18H14.7279H12.7279ZM16.1421 0.585787C15.3611 -0.195263 14.0947 -0.195263 13.3137 0.585787L0.58577 13.3137C-0.195279 14.0948 -0.195279 15.3611 0.58577 16.1421C1.36682 16.9232 2.63315 16.9232 3.4142 16.1421L14.7279 4.82843L26.0416 16.1421C26.8227 16.9232 28.089 16.9232 28.87 16.1421C29.6511 15.3611 29.6511 14.0948 28.87 13.3137L16.1421 0.585787ZM14.7279 18H16.7279V2H14.7279H12.7279V18H14.7279Z" fill="#121212"/>
</svg>
